Coordinates
version=1
nRows=14
nColumns=40
inDegrees=yes

Units are S.I. units (second, meters, Newtons, ...)
Angles are in degrees.

endheader
time	pelvis_tilt	pelvis_list	pelvis_rotation	pelvis_tx	pelvis_ty	pelvis_tz	hip_flexion_r	hip_adduction_r	hip_rotation_r	knee_angle_r	knee_angle_r_beta	ankle_angle_r	subtalar_angle_r	mtp_angle_r	hip_flexion_l	hip_adduction_l	hip_rotation_l	knee_angle_l	knee_angle_l_beta	ankle_angle_l	subtalar_angle_l	mtp_angle_l	lumbar_extension	lumbar_bending	lumbar_rotation	arm_flex_r	arm_add_r	arm_rot_r	elbow_flex_r	pro_sup_r	wrist_flex_r	wrist_dev_r	arm_flex_l	arm_add_l	arm_rot_l	elbow_flex_l	pro_sup_l	wrist_flex_l	wrist_dev_l
     50.66750000	     -3.75808374	     -4.72404284	      3.62576072	      0.81539013	      0.93203981	      0.50335022	      8.68971921	      3.48144312	    -17.21023577	     13.78674073	     13.78674073	     10.64467445	     -0.91197883	     -5.14477439	     32.45464788	     -9.98676324	      3.06783620	     52.78524161	     52.78524161	      9.26816358	    -18.01591773	     11.69778176	     -9.93643233	      6.57559862	      1.99401896	     23.60581917	    -17.35372468	     -5.19329891	     68.48552325	     45.19256162	      0.00000000	      0.00000000	      1.24966508	     -6.91786507	     -4.79969819	     35.06530900	     46.09878064	      0.00000000	      0.00000000
     50.68071429	     -3.89577571	     -4.61196775	      3.95619581	      0.81385505	      0.93207882	      0.50346558	      8.10420908	      3.49583232	    -17.41365573	     13.06820923	     13.06820923	     10.56654961	     -0.79531808	     -5.76751612	     32.81939708	     -9.51270129	      3.17369719	     49.00842221	     49.00842221	      9.35702643	    -17.73794921	     11.07223776	     -9.95998398	      6.43890446	      2.36343441	     24.80501064	    -17.98670465	     -5.09477973	     71.49607559	     45.10560154	      0.00000000	      0.00000000	      0.65249580	     -6.71625305	     -4.04544883	     32.93548069	     45.97782953	      0.00000000	      0.00000000
     50.69392857	     -3.98528469	     -4.48431127	      4.25664094	      0.81241567	      0.93204859	      0.50351236	      7.57159086	      3.47440167	    -17.50856698	     12.58339462	     12.58339462	     10.72413782	     -0.82474726	     -5.87195538	     32.95124992	     -8.98233958	      3.32094029	     44.99213579	     44.99213579	      9.71038932	    -17.26761667	     11.15236244	    -10.03164596	      6.26998135	      2.34416813	     26.65553960	    -18.02926713	     -5.28994745	     73.26095987	     45.06570098	      0.00000000	      0.00000000	     -0.49656837	     -6.62361043	     -3.78258863	     31.96207321	     45.92057489	      0.00000000	      0.00000000
     50.70714286	     -4.14156742	     -4.39661172	      4.53033911	      0.81107345	      0.93174573	      0.50347155	      7.14430131	      3.46815879	    -17.61838260	     12.17564969	     12.17564969	     10.91899384	     -0.80059069	     -6.00543118	     33.04126003	     -8.51875162	      3.40635747	     40.86819686	     40.86819686	     10.05360872	    -16.41628104	     11.20677622	     -9.98279210	      6.14374026	      2.36062614	     28.45906591	    -18.11842624	     -5.37394759	     75.06731768	     45.01979526	      0.00000000	      0.00000000	     -1.64336659	     -6.51585645	     -3.55029357	     31.02898680	     45.86792281	      0.00000000	      0.00000000
     50.72035714	     -4.25213438	     -4.35314452	      4.80347682	      0.80989673	      0.93133971	      0.50333307	      6.69841556	      3.49426789	    -17.75709198	     11.84360547	     11.84360547	     11.13006346	     -0.74628563	     -6.17447118	     32.97012956	     -8.09911665	      3.48185769	     36.71094801	     36.71094801	     10.37433510	    -15.32725546	     11.16722781	     -9.99026065	      6.08342144	      2.28131412	     30.18894584	    -18.10516565	     -5.33945369	     77.14833405	     44.96119340	      0.00000000	      0.00000000	     -2.76753595	     -6.42313152	     -3.28317075	     30.03594888	     45.81009481	      0.00000000	      0.00000000
     50.73357143	     -4.33888046	     -4.46454892	      5.11030896	      0.80887728	      0.93071153	      0.50308325	      6.23451067	      3.66949326	    -18.07609850	     11.52352047	     11.52352047	     11.32583989	     -0.54751149	     -6.50392169	     32.85556464	     -7.81868997	      3.64628763	     32.66826614	     32.66826614	     10.38442663	    -14.12460463	     10.38665476	    -10.03618913	      6.24963108	      2.22776388	     31.62535959	    -18.28949951	     -5.03456555	     80.46278923	     44.86063052	      0.00000000	      0.00000000	     -3.68034340	     -6.27819788	     -2.65060255	     28.62332560	     45.69939679	      0.00000000	      0.00000000
     50.74678571	     -4.42945509	     -4.42569434	      5.32100131	      0.80805244	      0.93008411	      0.50282742	      5.89132356	      3.65904667	    -18.11863180	     11.48174172	     11.48174172	     11.65297941	     -0.63081318	     -6.68518557	     32.62763611	     -7.47196437	      3.51230784	     28.80982286	     28.80982286	     10.65440803	    -12.56319265	     10.36854715	    -10.00098586	      6.15298640	      2.39729999	     33.11602287	    -18.41225474	     -5.09584772	     82.29407727	     44.81632681	      0.00000000	      0.00000000	     -4.68563494	     -6.21134318	     -2.33327138	     27.84082070	     45.63384801	      0.00000000	      0.00000000
     50.76000000	     -4.52253146	     -4.46159423	      5.54530462	      0.80735467	      0.92929550	      0.50242525	      5.55465397	      3.71488622	    -18.21967460	     11.45628323	     11.45628323	     11.99564162	     -0.70549670	     -6.80599402	     32.46513440	     -7.19669510	      3.30371061	     25.37788746	     25.37788746	     10.91440437	    -10.97885254	     10.45915456	     -9.96927733	      6.17157621	      2.37283307	     34.64662281	    -18.36934865	     -5.08287600	     84.33280477	     44.76332563	      0.00000000	      0.00000000	     -5.72143185	     -6.12842445	     -2.00877937	     27.11039521	     45.56567970	      0.00000000	      0.00000000
     50.77321429	     -4.59502196	     -4.48339003	      5.76388578	      0.80686312	      0.92847544	      0.50190212	      5.20819557	      3.74782513	    -18.29661940	     11.48613461	     11.48613461	     12.38611249	     -0.80744701	     -6.88631850	     32.30973262	     -6.91841003	      2.98565663	     22.42585452	     22.42585452	     11.12754097	     -9.44207803	     10.67032765	     -9.90548676	      6.18316416	      2.35003418	     36.12441435	    -18.27310019	     -5.04253850	     86.25621972	     44.71257492	      0.00000000	      0.00000000	     -6.72675918	     -6.04878144	     -1.72512010	     26.51241988	     45.50333251	      0.00000000	      0.00000000
     50.78642857	     -4.61199735	     -4.48331809	      5.98234622	      0.80661200	      0.92768085	      0.50127305	      4.79852147	      3.75258461	    -18.34887890	     11.55437137	     11.55437137	     12.83441850	     -0.91662748	     -6.91845943	     32.16299466	     -6.64065441	      2.54583976	     20.06959350	     20.06959350	     11.27409421	     -8.05359384	     10.90068004	     -9.86920581	      6.16402657	      2.28351296	     37.48102192	    -18.06449941	     -4.94135465	     88.22413472	     44.65856281	      0.00000000	      0.00000000	     -7.71541658	     -5.99060338	     -1.44153205	     26.00260509	     45.44010570	      0.00000000	      0.00000000
     50.79964286	     -4.65794963	     -4.53355620	      6.18476236	      0.80654617	      0.92679877	      0.50053070	      4.42066256	      3.80527048	    -18.41870110	     11.63120605	     11.63120605	     13.24783337	     -0.99251967	     -6.83930999	     32.15111037	     -6.41664924	      2.05970221	     18.39428736	     18.39428736	     11.43243328	     -6.93127803	     11.02652994	     -9.82501381	      6.18872339	      2.21022049	     38.75769523	    -17.96207950	     -4.86587696	     90.21841894	     44.60655311	      0.00000000	      0.00000000	     -8.71045912	     -5.93844760	     -1.11959594	     25.61537158	     45.36885162	      0.00000000	      0.00000000
     50.81285714	     -4.77744941	     -4.65262455	      6.36054241	      0.80664489	      0.92570905	      0.49970077	      4.10061416	      3.92452430	    -18.47298670	     11.66458665	     11.66458665	     13.62666668	     -1.08095782	     -6.86447530	     32.38305763	     -6.24745064	      1.71045001	     17.49345238	     17.49345238	     11.39000505	     -6.42636444	     11.11871224	     -9.56899922	      6.24970256	      2.34667284	     40.04945333	    -18.14870813	     -5.02279187	     91.19457267	     44.58892549	      0.00000000	      0.00000000	     -9.61181125	     -5.87913462	     -1.02708875	     25.32181181	     45.33728397	      0.00000000	      0.00000000
     50.82607143	     -4.69847181	     -4.57557366	      6.54469824	      0.80718140	      0.92503515	      0.49870072	      3.49467423	      3.85167982	    -18.53116564	     11.69202183	     11.69202183	     14.18264410	     -1.03868713	     -6.49239152	     32.23401640	     -5.99233441	      0.96565454	     16.87754169	     16.87754169	     11.20595380	     -5.60160077	     10.85578744	     -9.61614219	      6.17655955	      2.10312030	     40.86132689	    -17.66552951	     -4.70392602	     93.85583032	     44.51252314	      0.00000000	      0.00000000	    -10.57267518	     -5.88386578	     -0.56105065	     25.26282941	     45.23911584	      0.00000000	      0.00000000
     50.83928571	     -4.64312281	     -4.61266133	      6.65875985	      0.80793521	      0.92418585	      0.49769839	      2.94216412	      3.87758015	    -18.63443035	     11.81265765	     11.81265765	     15.06780636	     -0.72085642	     -5.25358849	     32.12240644	     -5.87123916	      0.47272085	     16.68057979	     16.68057979	     10.27044944	     -5.49782561	      9.27286250	     -9.54828886	      6.18678433	      2.58273641	     41.42160166	    -17.99214940	     -4.94133062	     95.94271367	     44.65793174	      0.00000000	      0.00000000	    -11.59008656	     -6.57284092	      4.15920747	     26.14010670	     44.56618288	      0.00000000	      0.00000000
